HIERARCHY
ROOT joint_Root
{
  OFFSET 0 0 0
  CHANNELS 6 Xposition Yposition Zposition Zrotation Xrotation Yrotation
  JOINT Hips
  {
    OFFSET 0.847027 93.984 -452.225
    CHANNELS 6 Xposition Yposition Zposition Zrotation Xrotation Yrotation
    JOINT Spine
    {
      OFFSET 15.7357 0 0
      CHANNELS 6 Xposition Yposition Zposition Zrotation Xrotation Yrotation
      JOINT Chest
      {
        OFFSET 8.98455 -0.406207 0
        CHANNELS 6 Xposition Yposition Zposition Zrotation Xrotation Yrotation
        JOINT Neck
        {
          OFFSET 16.3773 0 0
          CHANNELS 6 Xposition Yposition Zposition Zrotation Xrotation Yrotation
          JOINT Head
          {
            OFFSET 6.45672 0 0
            CHANNELS 6 Xposition Yposition Zposition Zrotation Xrotation Yrotation
            End Site
            {
              OFFSET 0 0 0
            }
          }
        }
        JOINT Shoulder_L
        {
          OFFSET 12.9942 -0.242716 4.98039
          CHANNELS 6 Xposition Yposition Zposition Zrotation Xrotation Yrotation
          JOINT UpperArm_L
          {
            OFFSET 5.34809 0 0
            CHANNELS 6 Xposition Yposition Zposition Zrotation Xrotation Yrotation
            JOINT LowerArm_L
            {
              OFFSET 24.3286 1.87007e-05 0
              CHANNELS 6 Xposition Yposition Zposition Zrotation Xrotation Yrotation
              JOINT Hand_L
              {
                OFFSET 22.2916 0 0
                CHANNELS 6 Xposition Yposition Zposition Zrotation Xrotation Yrotation
                End Site
                {
                  OFFSET 0 0 0
                }
              }
            }
          }
        }
        JOINT Shoulder_R
        {
          OFFSET 12.9945 -0.242716 -4.98039
          CHANNELS 6 Xposition Yposition Zposition Zrotation Xrotation Yrotation
          JOINT UpperArm_R
          {
            OFFSET -5.34813 0 0
            CHANNELS 6 Xposition Yposition Zposition Zrotation Xrotation Yrotation
            JOINT LowerArm_R
            {
              OFFSET -24.3289 0.000322201 0
              CHANNELS 6 Xposition Yposition Zposition Zrotation Xrotation Yrotation
              JOINT Hand_R
              {
                OFFSET -22.2915 -0.000108084 0
                CHANNELS 6 Xposition Yposition Zposition Zrotation Xrotation Yrotation
                End Site
                {
                  OFFSET 0 0 0
                }
              }
            }
          }
        }
      }
    }
    JOINT UpperLeg_L
    {
      OFFSET -2.19248 -6.46944 0
      CHANNELS 6 Xposition Yposition Zposition Zrotation Xrotation Yrotation
      JOINT LowerLeg_L
      {
        OFFSET 39.0811 0 -1.23785e-05
        CHANNELS 6 Xposition Yposition Zposition Zrotation Xrotation Yrotation
        JOINT Foot_L
        {
          OFFSET 40.9854 0 -1.26872e-05
          CHANNELS 6 Xposition Yposition Zposition Zrotation Xrotation Yrotation
          JOINT Toes_L
          {
            OFFSET 11.7543 0 0
            CHANNELS 6 Xposition Yposition Zposition Zrotation Xrotation Yrotation
            End Site
            {
              OFFSET 0 0 0
            }
          }
        }
      }
    }
    JOINT UpperLeg_R
    {
      OFFSET -2.19251 6.46944 0
      CHANNELS 6 Xposition Yposition Zposition Zrotation Xrotation Yrotation
      JOINT LowerLeg_R
      {
        OFFSET -39.0811 -0.00228153 -0.0401928
        CHANNELS 6 Xposition Yposition Zposition Zrotation Xrotation Yrotation
        JOINT Foot_R
        {
          OFFSET -40.9854 0 0
          CHANNELS 6 Xposition Yposition Zposition Zrotation Xrotation Yrotation
          JOINT Toes_R
          {
            OFFSET -11.7543 0 0
            CHANNELS 6 Xposition Yposition Zposition Zrotation Xrotation Yrotation
            End Site
            {
              OFFSET 0 0 0
            }
          }
        }
      }
    }
  }
}
MOTION
Frames:	8
Frame Time:	0.0333333
0 0 0 0 0 -0 -9.14973 92.7949 -19.6554 88.6185 -0.379164 -42.3593 15.7357 5.1072e-06 -5.51765e-07 85.3938 74.8761 -86.5699 8.98455 -0.406207 -4.3199e-07 22.3737 -2.5109 -1.86663 16.3773 -1.3905e-06 -6.99897e-07 40.9951 -6.96552 3.57367 6.45672 -1.25837e-06 -1.02172e-07 15.4185 -10.265 0.932221 12.9942 -0.242716 4.98039 -89.7401 -0.604826 -81.748 5.34809 -7.22636e-06 -6.2814e-07 -60.69 -7.96555 19.6954 24.3286 1.87007e-05 4.90208e-06 -1.42996 -8.09149 -10.0569 22.2916 -9.88446e-07 4.63217e-06 29.4373 5.5634 -9.35487 12.9945 -0.242716 -4.98039 87.9152 6.48043 -87.1237 -5.34813 -1.25947e-06 -3.79883e-06 -64.0982 -7.35442 25.0322 -24.3289 0.000322201 -8.65921e-06 3.32272 14.0966 -13.4115 -22.2915 -0.000108084 -4.47941e-06 18.8875 5.32348 -0.595482 -2.19248 -6.46944 -1.22534e-07 -176.359 -7.72209 -57.6749 39.0811 -6.73843e-06 -1.23785e-05 0.038103 -0.206262 6.79737 40.9854 -6.48686e-06 -1.26872e-05 -4.73336 -2.08046 -40.712 11.7543 -2.30145e-07 3.05095e-06 -0.0047326 0.00727322 -16.4471 -2.19251 6.46944 -1.45247e-06 -167.07 12.6311 123.85 -39.0811 -0.00228153 -0.0401928 -0.0267421 -0.0989675 0.0661216 -40.9854 7.72618e-06 5.99936e-06 -1.37142 4.18449 -37.4069 -11.7543 -5.6619e-06 -5.58687e-06 -0.0524309 0.057704 -16.0004 
0 0 0 0 0 -0 -9.04503 92.8471 -19.2891 88.424 -0.322631 -41.1444 15.7357 5.1072e-06 -5.51765e-07 84.6221 74.815 -85.9908 8.98455 -0.406207 -4.3199e-07 22.4562 -2.94146 -2.1664 16.3773 -1.3905e-06 -6.99897e-07 41.0945 -7.88876 3.14907 6.45672 -1.25837e-06 -1.02172e-07 15.8892 -11.26 0.333029 12.9942 -0.242716 4.98039 -89.9882 -0.0279568 -82.0718 5.34809 -7.22636e-06 -6.2814e-07 -61.3219 -7.77278 18.9962 24.3286 1.87007e-05 4.90208e-06 -1.67664 -8.86758 -10.7505 22.2916 -9.88446e-07 4.63217e-06 30.6375 5.56673 -9.51642 12.9945 -0.242716 -4.98039 87.939 6.40098 -87.1101 -5.34813 -1.25947e-06 -3.79883e-06 -66.0924 -6.98348 24.458 -24.3289 0.000322201 -8.65921e-06 3.21116 13.6788 -13.3506 -22.2915 -0.000108084 -4.47941e-06 18.7035 5.32805 -0.730262 -2.19248 -6.46944 -1.22534e-07 -176.397 -7.97619 -56.3387 39.0811 -6.73843e-06 -1.23785e-05 0.020169 -0.213223 7.01209 40.9854 -6.48686e-06 -1.26872e-05 -4.6888 -1.62253 -41.015 11.7543 -2.30145e-07 3.05095e-06 -0.00767742 0.011774 -16.3663 -2.19251 6.46944 -1.45247e-06 -167.026 13.0483 125.326 -39.0811 -0.00228153 -0.0401928 -0.00982655 -0.100631 -0.0260331 -40.9854 7.72618e-06 5.99936e-06 -1.27814 4.43909 -37.4413 -11.7543 -5.6619e-06 -5.58687e-06 -0.0525862 0.0578629 -15.9987 
0 0 0 0 0 -0 -8.91935 92.9059 -18.7799 88.28 -0.23448 -39.1897 15.7357 5.1072e-06 -5.51765e-07 84.2238 74.8465 -85.7842 8.98455 -0.406207 -4.3199e-07 22.3683 -3.16342 -2.51011 16.3773 -1.3905e-06 -6.99897e-07 40.9756 -8.45872 2.58464 6.45672 -1.25837e-06 -1.02172e-07 15.5364 -11.9497 -0.204635 12.9942 -0.242716 4.98039 -90.0717 0.170625 -82.2211 5.34809 -7.22636e-06 -6.2814e-07 -62.8243 -7.04255 17.7432 24.3286 1.87007e-05 4.90208e-06 -2.38207 -11.8834 -11.4208 22.2916 -9.88446e-07 4.63217e-06 31.4848 5.5853 -10.5037 12.9945 -0.242716 -4.98039 87.9435 6.41144 -87.1738 -5.34813 -1.25947e-06 -3.79883e-06 -67.7708 -6.48921 23.8819 -24.3289 0.000322201 -8.65921e-06 3.14224 13.9837 -12.8036 -22.2915 -0.000108084 -4.47941e-06 17.9143 5.3361 -0.964643 -2.19248 -6.46944 -1.22534e-07 -176.17 -7.95088 -54.1542 39.0811 -6.73843e-06 -1.23785e-05 0.0243406 -0.220608 7.26147 40.9854 -6.48686e-06 -1.26872e-05 -4.55657 -1.38219 -41.4074 11.7543 -2.30145e-07 3.05095e-06 -0.00718195 0.0110241 -16.3798 -2.19251 6.46944 -1.45247e-06 -167.458 13.5606 127.599 -39.0811 -0.00228153 -0.0401928 0.0062681 -0.102383 0.0757247 -40.9854 7.72618e-06 5.99936e-06 -1.29049 4.39608 -37.7202 -11.7543 -5.6619e-06 -5.58687e-06 -0.0525654 0.0578575 -15.9988 
0 0 0 0 0 -0 -8.75892 92.9751 -18.1346 88.1719 -0.0418577 -36.6944 15.7357 5.1072e-06 -5.51765e-07 84.4244 75.056 -86.0292 8.98455 -0.406207 -4.3199e-07 21.9604 -3.02392 -2.63724 16.3773 -1.3905e-06 -6.99897e-07 40.4858 -8.7053 2.17571 6.45672 -1.25837e-06 -1.02172e-07 14.8897 -12.3664 -0.956672 12.9942 -0.242716 4.98039 -89.991 -0.0214316 -82.1169 5.34809 -7.22636e-06 -6.2814e-07 -65.0902 -5.73184 15.7726 24.3286 1.87007e-05 4.90208e-06 -2.54241 -12.6624 -11.4511 22.2916 -9.88446e-07 4.63217e-06 29.5752 5.5858 -10.5204 12.9945 -0.242716 -4.98039 87.9288 6.40223 -87.0307 -5.34813 -1.25947e-06 -3.79883e-06 -68.5789 -6.16498 23.691 -24.3289 0.000322201 -8.65921e-06 3.2848 14.8461 -12.6296 -22.2915 -0.000108084 -4.47941e-06 16.5547 5.33881 -1.04458 -2.19248 -6.46944 -1.22534e-07 -175.794 -7.72794 -51.2967 39.0811 -6.73843e-06 -1.23785e-05 0.0240116 -0.226314 7.46515 40.9854 -6.48686e-06 -1.26872e-05 -4.43307 -1.21156 -41.9176 11.7543 -2.30145e-07 3.05095e-06 -0.00510585 0.00784304 -16.4368 -2.19251 6.46944 -1.45247e-06 -168.26 14.1739 130.456 -39.0811 -0.00228153 -0.0401928 0.00606321 -0.104852 0.42042 -40.9854 7.72618e-06 5.99936e-06 -1.44255 4.1262 -38.2603 -11.7543 -5.6619e-06 -5.58687e-06 -0.051214 0.0563917 -16.0135 
0 0 0 0 0 -0 -8.55217 93.0319 -17.3154 88.0834 0.179486 -33.6017 15.7357 5.1072e-06 -5.51765e-07 84.8491 75.3523 -86.422 8.98455 -0.406207 -4.3199e-07 21.3913 -2.74917 -2.6393 16.3773 -1.3905e-06 -6.99897e-07 39.536 -8.72669 1.65638 6.45672 -1.25837e-06 -1.02172e-07 14.1396 -12.4143 -1.73284 12.9942 -0.242716 4.98039 -89.9644 -0.0836817 -81.9121 5.34809 -7.22636e-06 -6.2814e-07 -66.9136 -4.46767 14.0166 24.3286 1.87007e-05 4.90208e-06 -2.11036 -10.5281 -11.4022 22.2916 -9.88446e-07 4.63217e-06 26.0184 5.56413 -9.37196 12.9945 -0.242716 -4.98039 87.8829 6.50665 -86.9324 -5.34813 -1.25947e-06 -3.79883e-06 -68.5661 -6.04766 23.8891 -24.3289 0.000322201 -8.65921e-06 3.20615 14.15 -12.9102 -22.2915 -0.000108084 -4.47941e-06 15.9151 5.34027 -1.08725 -2.19248 -6.46944 -1.22534e-07 -175.319 -7.33743 -47.6896 39.0811 -6.73843e-06 -1.23785e-05 0.0256554 -0.230908 7.65574 40.9854 -6.48686e-06 -1.26872e-05 -4.31936 -1.07991 -42.6146 11.7543 -2.30145e-07 3.05095e-06 -0.0055605 0.00855375 -16.4242 -2.19251 6.46944 -1.45247e-06 -169.177 15.044 133.966 -39.0811 -0.00228153 -0.0401928 0.00604064 -0.107307 0.908702 -40.9854 7.72618e-06 5.99936e-06 -1.61677 3.99572 -39.0454 -11.7543 -5.6619e-06 -5.58687e-06 -0.0586497 0.0644725 -15.9328 
0 0 0 0 0 -0 -8.27858 93.0874 -16.3224 88.0162 0.364398 -30.1106 15.7357 5.1072e-06 -5.51765e-07 85.1552 75.7451 -86.7043 8.98455 -0.406207 -4.3199e-07 20.6231 -2.5236 -2.65017 16.3773 -1.3905e-06 -6.99897e-07 38.1937 -8.47226 1.23955 6.45672 -1.25837e-06 -1.02172e-07 13.3099 -11.9498 -2.79762 12.9942 -0.242716 4.98039 -89.9948 -0.0120606 -81.5656 5.34809 -7.22636e-06 -6.2814e-07 -67.9057 -3.14627 12.5252 24.3286 1.87007e-05 4.90208e-06 -1.51987 -7.99745 -10.7953 22.2916 -9.88446e-07 4.63217e-06 23.569 5.54934 -8.66799 12.9945 -0.242716 -4.98039 87.8944 6.38285 -86.6996 -5.34813 -1.25947e-06 -3.79883e-06 -68.1073 -6.20508 23.7513 -24.3289 0.000322201 -8.65921e-06 3.1027 13.6941 -12.9008 -22.2915 -0.000108084 -4.47941e-06 15.6694 5.33736 -1.00151 -2.19248 -6.46944 -1.22534e-07 -174.971 -6.97487 -43.554 39.0811 -6.73843e-06 -1.23785e-05 0.0263966 -0.234065 7.83316 40.9854 -6.48686e-06 -1.26872e-05 -4.16238 -0.856668 -43.4304 11.7543 -2.30145e-07 3.05095e-06 -0.00411667 0.00631772 -16.4641 -2.19251 6.46944 -1.45247e-06 -170.433 15.9188 138.044 -39.0811 -0.00228153 -0.0401928 0.00438605 -0.111103 1.42607 -40.9854 7.72618e-06 5.99936e-06 -1.94278 3.83795 -39.9263 -11.7543 -5.6619e-06 -5.58687e-06 -0.0669108 0.0734395 -15.843 
0 0 0 0 0 -0 -7.93566 93.1148 -15.1774 88.0048 0.426502 -26.4203 15.7357 5.1072e-06 -5.51765e-07 85.2468 76.2546 -86.8369 8.98455 -0.406207 -4.3199e-07 19.6101 -2.39238 -2.77611 16.3773 -1.3905e-06 -6.99897e-07 36.5008 -8.02399 0.797753 6.45672 -1.25837e-06 -1.02172e-07 12.3696 -11.1257 -3.77832 12.9942 -0.242716 4.98039 -90.0643 0.145763 -81.2113 5.34809 -7.22636e-06 -6.2814e-07 -67.5165 -2.78753 11.7508 24.3286 1.87007e-05 4.90208e-06 -0.935498 -5.12925 -10.3509 22.2916 -9.88446e-07 4.63217e-06 22.4369 5.53508 -8.01679 12.9945 -0.242716 -4.98039 87.917 6.19326 -86.3689 -5.34813 -1.25947e-06 -3.79883e-06 -67.1261 -6.41356 23.6621 -24.3289 0.000322201 -8.65921e-06 3.19751 13.8561 -13.1349 -22.2915 -0.000108084 -4.47941e-06 15.1831 5.33468 -0.922439 -2.19248 -6.46944 -1.22534e-07 -174.88 -6.83005 -39.0625 39.0811 -6.73843e-06 -1.23785e-05 0.0262907 -0.23301 7.96959 40.9854 -6.48686e-06 -1.26872e-05 -3.96041 -0.364587 -44.4246 11.7543 -2.30145e-07 3.05095e-06 -0.00122767 0.00188612 -16.5436 -2.19251 6.46944 -1.45247e-06 -171.807 16.9309 142.321 -39.0811 -0.00228153 -0.0401928 0.00566916 -0.116619 2.14306 -40.9854 7.72618e-06 5.99936e-06 -2.34114 3.98982 -40.954 -11.7543 -5.6619e-06 -5.58687e-06 -0.074498 0.081646 -15.7609 
0 0 0 0 0 -0 -7.50822 93.1326 -13.8701 88.0381 0.198949 -22.6208 15.7357 5.1072e-06 -5.51765e-07 85.4504 76.8205 -87.1659 8.98455 -0.406207 -4.3199e-07 18.4881 -2.21027 -3.07945 16.3773 -1.3905e-06 -6.99897e-07 34.6739 -7.19334 0.84547 6.45672 -1.25837e-06 -1.02172e-07 11.0132 -10.4967 -4.89674 12.9942 -0.242716 4.98039 -90.0965 0.216816 -81.0187 5.34809 -7.22636e-06 -6.2814e-07 -66.0105 -3.50493 11.4024 24.3286 1.87007e-05 4.90208e-06 -0.83577 -4.63373 -10.236 22.2916 -9.88446e-07 4.63217e-06 21.6595 5.52016 -7.36525 12.9945 -0.242716 -4.98039 87.912 6.08057 -86.0071 -5.34813 -1.25947e-06 -3.79883e-06 -65.6892 -6.59906 23.6535 -24.3289 0.000322201 -8.65921e-06 3.1162 13.223 -13.392 -22.2915 -0.000108084 -4.47941e-06 14.7163 5.33602 -0.962786 -2.19248 -6.46944 -1.22534e-07 -174.898 -6.83363 -34.1978 39.0811 -6.73843e-06 -1.23785e-05 0.02463 -0.225271 7.99556 40.9854 -6.48686e-06 -1.26872e-05 -3.8259 -0.0267359 -45.7367 11.7543 -2.30145e-07 3.05095e-06 -0.00154304 0.00237799 -16.5349 -2.19251 6.46944 -1.45247e-06 -173.648 17.5026 146.953 -39.0811 -0.00228153 -0.0401928 0.00963307 -0.120952 2.76953 -40.9854 7.72618e-06 5.99936e-06 -2.69313 4.04812 -41.9726 -11.7543 -5.6619e-06 -5.58687e-06 -0.0776904 0.085097 -15.7263 
